<?xml version="1.0" encoding="UTF-8" standalone="no"?>
<!-- Created with Inkscape (http://www.inkscape.org/) -->

<svg
   width="1280"
   height="720"
   viewBox="0 0 338.66666 190.5"
   version="1.1"
   id="svg1"
   xml:space="preserve"
   sodipodi:docname="banner.svg"
   inkscape:version="1.4.4 (dcaf3e7d9e, 2026-05-05)"
   inkscape:export-filename="banner.png"
   inkscape:export-xdpi="96"
   inkscape:export-ydpi="96"
   xmlns:inkscape="http://www.inkscape.org/namespaces/inkscape"
   xmlns:sodipodi="http://sodipodi.sourceforge.net/DTD/sodipodi-0.dtd"
   xmlns:xlink="http://www.w3.org/1999/xlink"
   xmlns="http://www.w3.org/2000/svg"
   xmlns:svg="http://www.w3.org/2000/svg"><sodipodi:namedview
     id="namedview1"
     pagecolor="#ffffff"
     bordercolor="#000000"
     borderopacity="0.25"
     inkscape:showpageshadow="2"
     inkscape:pageopacity="0.0"
     inkscape:pagecheckerboard="0"
     inkscape:deskcolor="#d1d1d1"
     inkscape:document-units="mm"
     inkscape:zoom="0.60263365"
     inkscape:cx="595.71848"
     inkscape:cy="362.57517"
     inkscape:window-width="1920"
     inkscape:window-height="1008"
     inkscape:window-x="0"
     inkscape:window-y="0"
     inkscape:window-maximized="1"
     inkscape:current-layer="layer1" /><defs
     id="defs1"><inkscape:perspective
       sodipodi:type="inkscape:persp3d"
       inkscape:vp_x="0.96857387 : 179.81682 : 1"
       inkscape:vp_y="-1.8369702e-13 : 1000 : 0"
       inkscape:vp_z="27.426906 : 179.81682 : 1"
       inkscape:persp3d-origin="14.197739 : 175.4071 : 1"
       id="perspective1" /><linearGradient
       id="linearGradient4"><stop
         style="stop-color:#0092ff;stop-opacity:1;"
         offset="0.62856424"
         id="stop3" /><stop
         style="stop-color:#3a3a3a;stop-opacity:1;"
         offset="0.99946749"
         id="stop4" /></linearGradient><linearGradient
       id="linearGradient2"><stop
         style="stop-color:#000000;stop-opacity:1;"
         offset="0"
         id="stop1" /><stop
         style="stop-color:#000000;stop-opacity:1;"
         offset="1"
         id="stop2" /></linearGradient><linearGradient
       id="linearGradient2795"><stop
         style="stop-color:#b8b8b8;stop-opacity:0.49803922;"
         offset="0"
         id="stop2797" /><stop
         style="stop-color:#7f7f7f;stop-opacity:0;"
         offset="1"
         id="stop2799" /></linearGradient><linearGradient
       id="linearGradient2787"><stop
         style="stop-color:#7f7f7f;stop-opacity:0.5;"
         offset="0"
         id="stop2789" /><stop
         style="stop-color:#7f7f7f;stop-opacity:0;"
         offset="1"
         id="stop2791" /></linearGradient><linearGradient
       id="linearGradient3676"><stop
         style="stop-color:#b2b2b2;stop-opacity:0.5;"
         offset="0"
         id="stop3678" /><stop
         style="stop-color:#b3b3b3;stop-opacity:0;"
         offset="1"
         id="stop3680" /></linearGradient><linearGradient
       id="linearGradient3236"><stop
         style="stop-color:#f4f4f4;stop-opacity:1"
         offset="0"
         id="stop3244" /><stop
         style="stop-color:white;stop-opacity:1"
         offset="1"
         id="stop3240" /></linearGradient><linearGradient
       id="linearGradient4671"><stop
         style="stop-color:#ffd43b;stop-opacity:1;"
         offset="0"
         id="stop4673" /><stop
         style="stop-color:#ffe873;stop-opacity:1"
         offset="1"
         id="stop4675" /></linearGradient><linearGradient
       id="linearGradient4689"><stop
         style="stop-color:#5a9fd4;stop-opacity:1;"
         offset="0"
         id="stop4691" /><stop
         style="stop-color:#306998;stop-opacity:1;"
         offset="1"
         id="stop4693" /></linearGradient><linearGradient
       x1="224.23996"
       y1="144.75717"
       x2="-65.308502"
       y2="144.75717"
       id="linearGradient2987"
       xlink:href="#linearGradient4671"
       gradientUnits="userSpaceOnUse"
       gradientTransform="translate(100.2702,99.61116)" /><linearGradient
       x1="172.94208"
       y1="77.475983"
       x2="26.670298"
       y2="76.313133"
       id="linearGradient2990"
       xlink:href="#linearGradient4689"
       gradientUnits="userSpaceOnUse"
       gradientTransform="translate(100.2702,99.61116)" /><linearGradient
       inkscape:collect="always"
       xlink:href="#linearGradient4671"
       id="linearGradient2255"
       gradientUnits="userSpaceOnUse"
       gradientTransform="matrix(0.562541,0,0,0.567972,-11.5974,-7.60954)"
       x1="224.23996"
       y1="144.75717"
       x2="-65.308502"
       y2="144.75717" /><linearGradient
       inkscape:collect="always"
       xlink:href="#linearGradient4689"
       id="linearGradient2258"
       gradientUnits="userSpaceOnUse"
       gradientTransform="matrix(0.562541,0,0,0.567972,-11.5974,-7.60954)"
       x1="172.94208"
       y1="76.176224"
       x2="26.670298"
       y2="76.313133" /><radialGradient
       inkscape:collect="always"
       xlink:href="#linearGradient2795"
       id="radialGradient2801"
       cx="61.518883"
       cy="132.28575"
       fx="61.518883"
       fy="132.28575"
       r="29.036913"
       gradientTransform="matrix(1,0,0,0.177966,0,108.7434)"
       gradientUnits="userSpaceOnUse" /><radialGradient
       inkscape:collect="always"
       xlink:href="#linearGradient2795"
       id="radialGradient2801-0"
       cx="61.518883"
       cy="132.28575"
       fx="61.518883"
       fy="132.28575"
       r="29.036913"
       gradientTransform="matrix(1,0,0,0.177966,0,108.7434)"
       gradientUnits="userSpaceOnUse" /></defs><g
     inkscape:label="Layer 1"
     inkscape:groupmode="layer"
     id="layer1"><rect
       style="fill:#262626;stroke:#e0e0e0;stroke-width:0.449792;stroke-linejoin:bevel;fill-opacity:1"
       id="rect1"
       width="338.66666"
       height="190.5"
       x="0"
       y="0"
       ry="0.5297932" /><text
       xml:space="preserve"
       style="font-weight:600;font-size:48.4368px;font-family:FreeSans;-inkscape-font-specification:'FreeSans, Semi-Bold';writing-mode:lr-tb;direction:ltr;fill:#e5e5e5;fill-opacity:1;stroke:none;stroke-width:2.48542;stroke-linejoin:bevel"
       x="54.228916"
       y="176.24515"
       id="text1"><tspan
         sodipodi:role="line"
         style="fill:#e5e5e5;fill-opacity:1;stroke:none;stroke-width:2.48542"
         x="54.228916"
         y="176.24515"
         id="tspan2">PyBundle</tspan></text><g
       id="g3"
       transform="matrix(1.439454,0,0,1.439454,96.518945,-0.75083358)"><g
         id="g6"
         transform="matrix(0.8196288,0,0,0.8196288,3.5585301,2.3433859)"><path
           style="fill:#478cbf;fill-opacity:1"
           d="M 56.921875,1.0351385 C 52.338222,1.0564365 47.960936,1.4473562 44.109375,2.1288886 32.763159,4.1333924 30.703126,8.3289907 30.703125,16.066388 v 10.21875 h 26.8125 v 3.40625 h -26.8125 -10.0625 c -7.792459,0 -14.6157588,4.683717 -16.7499998,13.59375 -2.46182,10.212966 -2.5710151,16.586023 0,27.25 1.9059283,7.937852 6.4575428,13.593748 14.2499998,13.59375 h 9.21875 v -12.25 c 0,-8.849902 7.657144,-16.656248 16.75,-16.65625 h 26.78125 c 7.454951,0 13.406253,-6.138164 13.40625,-13.625 v -25.53125 c 0,-7.2663383 -6.12998,-12.7247768 -13.40625,-13.9374994 C 66.284638,1.3621632 61.505528,1.0138402 56.921875,1.0351385 Z m -14.5,8.2187502 c 2.769547,0 5.03125,2.2986453 5.03125,5.1249993 -2e-6,2.816336 -2.261703,5.09375 -5.03125,5.09375 -2.779476,-1e-6 -5.03125,-2.277415 -5.03125,-5.09375 -10e-7,-2.826353 2.251774,-5.1249993 5.03125,-5.1249993 z"
           id="path1948"
           inkscape:label="top snake" /><path
           style="fill:#cccccc;fill-opacity:1"
           d="m 87.640625,29.691388 v 11.90625 c 0,9.230755 -7.825895,16.999999 -16.75,17 h -26.78125 c -7.335833,0 -13.406249,6.278483 -13.40625,13.625 -8.30838,49.130862 67.000004,11.90625 67.000004,11.90625 7.792461,0 10.696251,-5.435408 13.406241,-13.59375 2.79933,-8.398886 2.68022,-16.475776 0,-27.25 -1.92578,-7.757441 -5.60387,-13.59375 -13.406241,-13.59375 z"
           id="path1950"
           inkscape:label="bottom snake"
           sodipodi:nodetypes="csssssccsc" /></g><path
         fill="#478cbf"
         d="m 91.356681,62.968971 c 1.986697,2.582722 3.84095,5.264763 5.562757,8.046148 -2.317826,3.907182 -5.06609,7.483249 -8.244807,10.728206 -2.847607,-1.324479 -5.562773,-2.88073 -8.145486,-4.668762 -2.648926,2.450261 -5.562763,4.569426 -8.741486,6.357449 0.463561,3.377403 0.728462,6.754796 0.794681,10.13219 -3.907184,1.85427 -7.979924,3.244939 -12.218218,4.172079 -1.721812,-2.847606 -3.244943,-5.794554 -4.569414,-8.840827 -3.244945,0.463566 -6.489898,0.463566 -9.734839,0 -1.324472,3.046273 -2.847605,5.993221 -4.569418,8.840827 -4.238294,-0.92714 -8.311032,-2.317809 -12.218217,-4.172079 0.06619,-3.377394 0.331121,-6.754787 0.794682,-10.13219 -3.178725,-1.788023 -6.092556,-3.907188 -8.74149,-6.357449 -2.582712,1.788032 -5.297874,3.344283 -8.145479,4.668762 -3.178723,-3.244957 -5.9269926,-6.821024 -8.2448124,-10.728206 1.7218092,-2.781385 3.5760638,-5.463426 5.5627644,-8.046148 3.751156,-0.0091 80.858782,0 80.858782,0 z"
         id="path6"
         sodipodi:nodetypes="ccccccccccccccccc"
         style="fill:#4d4d4d;fill-opacity:1;stroke-width:0.0993353"
         inkscape:label="bottom cog" /></g></g></svg>
